<svg width="902" height="48" viewBox="0 0 902 48" fill="none" xmlns="http://www.w3.org/2000/svg">
<line x1="15" y1="7.5" x2="874" y2="7.5" stroke="#E8E8E8"/>
<circle cx="15.5" cy="7.5" r="7.5" fill="#61CB46"/>
<circle cx="436.5" cy="7.5" r="7.5" fill="#61CB46"/>
<circle cx="874.5" cy="7.5" r="7.5" fill="#61CB46"/>
<path d="M9.78125 39.9844L11.2969 40.3672C10.9792 41.612 10.4062 42.5625 9.57812 43.2188C8.75521 43.8698 7.7474 44.1953 6.55469 44.1953C5.32031 44.1953 4.3151 43.9453 3.53906 43.4453C2.76823 42.9401 2.17969 42.2109 1.77344 41.2578C1.3724 40.3047 1.17188 39.2812 1.17188 38.1875C1.17188 36.9948 1.39844 35.9557 1.85156 35.0703C2.3099 34.1797 2.95833 33.5052 3.79688 33.0469C4.64062 32.5833 5.56771 32.3516 6.57812 32.3516C7.72396 32.3516 8.6875 32.6432 9.46875 33.2266C10.25 33.8099 10.7943 34.6302 11.1016 35.6875L9.60938 36.0391C9.34375 35.2057 8.95833 34.599 8.45312 34.2188C7.94792 33.8385 7.3125 33.6484 6.54688 33.6484C5.66667 33.6484 4.92969 33.8594 4.33594 34.2812C3.7474 34.7031 3.33333 35.2708 3.09375 35.9844C2.85417 36.6927 2.73438 37.4245 2.73438 38.1797C2.73438 39.1536 2.875 40.0052 3.15625 40.7344C3.44271 41.4583 3.88542 42 4.48438 42.3594C5.08333 42.7188 5.73177 42.8984 6.42969 42.8984C7.27865 42.8984 7.9974 42.6536 8.58594 42.1641C9.17448 41.6745 9.57292 40.9479 9.78125 39.9844ZM18.4062 42.9766C17.8854 43.4193 17.3828 43.7318 16.8984 43.9141C16.4193 44.0964 15.9036 44.1875 15.3516 44.1875C14.4401 44.1875 13.7396 43.9661 13.25 43.5234C12.7604 43.0755 12.5156 42.5052 12.5156 41.8125C12.5156 41.4062 12.6068 41.0365 12.7891 40.7031C12.9766 40.3646 13.2188 40.0938 13.5156 39.8906C13.8177 39.6875 14.1562 39.5339 14.5312 39.4297C14.8073 39.3568 15.224 39.2865 15.7812 39.2188C16.9167 39.0833 17.7526 38.9219 18.2891 38.7344C18.2943 38.5417 18.2969 38.4193 18.2969 38.3672C18.2969 37.7943 18.1641 37.3906 17.8984 37.1562C17.5391 36.8385 17.0052 36.6797 16.2969 36.6797C15.6354 36.6797 15.1458 36.7969 14.8281 37.0312C14.5156 37.2604 14.2839 37.6693 14.1328 38.2578L12.7578 38.0703C12.8828 37.4818 13.0885 37.0078 13.375 36.6484C13.6615 36.2839 14.0755 36.0052 14.6172 35.8125C15.1589 35.6146 15.7865 35.5156 16.5 35.5156C17.2083 35.5156 17.7839 35.599 18.2266 35.7656C18.6693 35.9323 18.9948 36.1432 19.2031 36.3984C19.4115 36.6484 19.5573 36.9661 19.6406 37.3516C19.6875 37.5911 19.7109 38.0234 19.7109 38.6484V40.5234C19.7109 41.8307 19.7396 42.6589 19.7969 43.0078C19.8594 43.3516 19.9792 43.6823 20.1562 44H18.6875C18.5417 43.7083 18.4479 43.3672 18.4062 42.9766ZM18.2891 39.8359C17.7786 40.0443 17.013 40.2214 15.9922 40.3672C15.4141 40.4505 15.0052 40.5443 14.7656 40.6484C14.526 40.7526 14.3411 40.9062 14.2109 41.1094C14.0807 41.3073 14.0156 41.5286 14.0156 41.7734C14.0156 42.1484 14.1562 42.4609 14.4375 42.7109C14.724 42.9609 15.1406 43.0859 15.6875 43.0859C16.2292 43.0859 16.7109 42.9688 17.1328 42.7344C17.5547 42.4948 17.8646 42.1693 18.0625 41.7578C18.2135 41.4401 18.2891 40.9714 18.2891 40.3516V39.8359ZM21.8828 44V35.7031H23.1484V36.9609C23.4714 36.3724 23.7682 35.9844 24.0391 35.7969C24.3151 35.6094 24.6172 35.5156 24.9453 35.5156C25.4193 35.5156 25.901 35.6667 26.3906 35.9688L25.9062 37.2734C25.5625 37.0703 25.2188 36.9688 24.875 36.9688C24.5677 36.9688 24.2917 37.0625 24.0469 37.25C23.8021 37.4323 23.6276 37.6875 23.5234 38.0156C23.3672 38.5156 23.2891 39.0625 23.2891 39.6562V44H21.8828ZM30.2969 42.7422L30.5 43.9844C30.1042 44.0677 29.75 44.1094 29.4375 44.1094C28.9271 44.1094 28.5312 44.0286 28.25 43.8672C27.9688 43.7057 27.7708 43.4948 27.6562 43.2344C27.5417 42.9688 27.4844 42.4141 27.4844 41.5703V36.7969H26.4531V35.7031H27.4844V33.6484L28.8828 32.8047V35.7031H30.2969V36.7969H28.8828V41.6484C28.8828 42.0495 28.9062 42.3073 28.9531 42.4219C29.0052 42.5365 29.0859 42.6276 29.1953 42.6953C29.3099 42.763 29.4714 42.7969 29.6797 42.7969C29.8359 42.7969 30.0417 42.7786 30.2969 42.7422Z" fill="black"/>
<path d="M377.602 44V32.5469H381.922C382.682 32.5469 383.263 32.5833 383.664 32.6562C384.227 32.75 384.698 32.9297 385.078 33.1953C385.458 33.4557 385.763 33.8229 385.992 34.2969C386.227 34.7708 386.344 35.2917 386.344 35.8594C386.344 36.8333 386.034 37.6589 385.414 38.3359C384.794 39.0078 383.674 39.3438 382.055 39.3438H379.117V44H377.602ZM379.117 37.9922H382.078C383.057 37.9922 383.753 37.8099 384.164 37.4453C384.576 37.0807 384.781 36.5677 384.781 35.9062C384.781 35.4271 384.659 35.0182 384.414 34.6797C384.174 34.3359 383.857 34.1094 383.461 34C383.206 33.9323 382.734 33.8984 382.047 33.8984H379.117V37.9922ZM393.508 42.9766C392.987 43.4193 392.484 43.7318 392 43.9141C391.521 44.0964 391.005 44.1875 390.453 44.1875C389.542 44.1875 388.841 43.9661 388.352 43.5234C387.862 43.0755 387.617 42.5052 387.617 41.8125C387.617 41.4062 387.708 41.0365 387.891 40.7031C388.078 40.3646 388.32 40.0938 388.617 39.8906C388.919 39.6875 389.258 39.5339 389.633 39.4297C389.909 39.3568 390.326 39.2865 390.883 39.2188C392.018 39.0833 392.854 38.9219 393.391 38.7344C393.396 38.5417 393.398 38.4193 393.398 38.3672C393.398 37.7943 393.266 37.3906 393 37.1562C392.641 36.8385 392.107 36.6797 391.398 36.6797C390.737 36.6797 390.247 36.7969 389.93 37.0312C389.617 37.2604 389.385 37.6693 389.234 38.2578L387.859 38.0703C387.984 37.4818 388.19 37.0078 388.477 36.6484C388.763 36.2839 389.177 36.0052 389.719 35.8125C390.26 35.6146 390.888 35.5156 391.602 35.5156C392.31 35.5156 392.885 35.599 393.328 35.7656C393.771 35.9323 394.096 36.1432 394.305 36.3984C394.513 36.6484 394.659 36.9661 394.742 37.3516C394.789 37.5911 394.812 38.0234 394.812 38.6484V40.5234C394.812 41.8307 394.841 42.6589 394.898 43.0078C394.961 43.3516 395.081 43.6823 395.258 44H393.789C393.643 43.7083 393.549 43.3672 393.508 42.9766ZM393.391 39.8359C392.88 40.0443 392.115 40.2214 391.094 40.3672C390.516 40.4505 390.107 40.5443 389.867 40.6484C389.628 40.7526 389.443 40.9062 389.312 41.1094C389.182 41.3073 389.117 41.5286 389.117 41.7734C389.117 42.1484 389.258 42.4609 389.539 42.7109C389.826 42.9609 390.242 43.0859 390.789 43.0859C391.331 43.0859 391.812 42.9688 392.234 42.7344C392.656 42.4948 392.966 42.1693 393.164 41.7578C393.315 41.4401 393.391 40.9714 393.391 40.3516V39.8359ZM396.938 47.1953L396.781 45.875C397.089 45.9583 397.357 46 397.586 46C397.898 46 398.148 45.9479 398.336 45.8438C398.523 45.7396 398.677 45.5938 398.797 45.4062C398.885 45.2656 399.029 44.9167 399.227 44.3594C399.253 44.2812 399.294 44.1667 399.352 44.0156L396.203 35.7031H397.719L399.445 40.5078C399.669 41.1172 399.87 41.7578 400.047 42.4297C400.208 41.7839 400.401 41.1536 400.625 40.5391L402.398 35.7031H403.805L400.648 44.1406C400.31 45.0521 400.047 45.6797 399.859 46.0234C399.609 46.487 399.323 46.8255 399 47.0391C398.677 47.2578 398.292 47.3672 397.844 47.3672C397.573 47.3672 397.271 47.3099 396.938 47.1953ZM405 44V35.7031H406.258V36.8672C406.518 36.4609 406.865 36.1354 407.297 35.8906C407.729 35.6406 408.221 35.5156 408.773 35.5156C409.388 35.5156 409.891 35.6432 410.281 35.8984C410.677 36.1536 410.956 36.5104 411.117 36.9688C411.773 36 412.628 35.5156 413.68 35.5156C414.503 35.5156 415.135 35.7448 415.578 36.2031C416.021 36.6562 416.242 37.3568 416.242 38.3047V44H414.844V38.7734C414.844 38.2109 414.797 37.8073 414.703 37.5625C414.615 37.3125 414.451 37.112 414.211 36.9609C413.971 36.8099 413.69 36.7344 413.367 36.7344C412.784 36.7344 412.299 36.9297 411.914 37.3203C411.529 37.7057 411.336 38.3255 411.336 39.1797V44H409.93V38.6094C409.93 37.9844 409.815 37.5156 409.586 37.2031C409.357 36.8906 408.982 36.7344 408.461 36.7344C408.065 36.7344 407.698 36.8385 407.359 37.0469C407.026 37.2552 406.784 37.5599 406.633 37.9609C406.482 38.362 406.406 38.9401 406.406 39.6953V44H405ZM424.008 41.3281L425.461 41.5078C425.232 42.3568 424.807 43.0156 424.188 43.4844C423.568 43.9531 422.776 44.1875 421.812 44.1875C420.599 44.1875 419.635 43.8151 418.922 43.0703C418.214 42.3203 417.859 41.2708 417.859 39.9219C417.859 38.526 418.219 37.4427 418.938 36.6719C419.656 35.901 420.589 35.5156 421.734 35.5156C422.844 35.5156 423.75 35.8932 424.453 36.6484C425.156 37.4036 425.508 38.4661 425.508 39.8359C425.508 39.9193 425.505 40.0443 425.5 40.2109H419.312C419.365 41.1224 419.622 41.8203 420.086 42.3047C420.549 42.7891 421.128 43.0312 421.82 43.0312C422.336 43.0312 422.776 42.8958 423.141 42.625C423.505 42.3542 423.794 41.9219 424.008 41.3281ZM419.391 39.0547H424.023C423.961 38.3568 423.784 37.8333 423.492 37.4844C423.044 36.9427 422.464 36.6719 421.75 36.6719C421.104 36.6719 420.56 36.888 420.117 37.3203C419.68 37.7526 419.438 38.3307 419.391 39.0547ZM427.234 44V35.7031H428.5V36.8828C429.109 35.9714 429.99 35.5156 431.141 35.5156C431.641 35.5156 432.099 35.6068 432.516 35.7891C432.938 35.9661 433.253 36.2005 433.461 36.4922C433.669 36.7839 433.815 37.1302 433.898 37.5312C433.951 37.7917 433.977 38.2474 433.977 38.8984V44H432.57V38.9531C432.57 38.3802 432.516 37.9531 432.406 37.6719C432.297 37.3854 432.102 37.1589 431.82 36.9922C431.544 36.8203 431.219 36.7344 430.844 36.7344C430.245 36.7344 429.727 36.9245 429.289 37.3047C428.857 37.6849 428.641 38.4062 428.641 39.4688V44H427.234ZM439.211 42.7422L439.414 43.9844C439.018 44.0677 438.664 44.1094 438.352 44.1094C437.841 44.1094 437.445 44.0286 437.164 43.8672C436.883 43.7057 436.685 43.4948 436.57 43.2344C436.456 42.9688 436.398 42.4141 436.398 41.5703V36.7969H435.367V35.7031H436.398V33.6484L437.797 32.8047V35.7031H439.211V36.7969H437.797V41.6484C437.797 42.0495 437.82 42.3073 437.867 42.4219C437.919 42.5365 438 42.6276 438.109 42.6953C438.224 42.763 438.385 42.7969 438.594 42.7969C438.75 42.7969 438.956 42.7786 439.211 42.7422ZM444.523 39.8516C444.523 38.3151 444.951 37.1771 445.805 36.4375C446.518 35.8229 447.388 35.5156 448.414 35.5156C449.555 35.5156 450.487 35.8906 451.211 36.6406C451.935 37.3854 452.297 38.4167 452.297 39.7344C452.297 40.8021 452.135 41.6432 451.812 42.2578C451.495 42.8672 451.029 43.3411 450.414 43.6797C449.805 44.0182 449.138 44.1875 448.414 44.1875C447.253 44.1875 446.312 43.8151 445.594 43.0703C444.88 42.3255 444.523 41.2526 444.523 39.8516ZM445.969 39.8516C445.969 40.9141 446.201 41.7109 446.664 42.2422C447.128 42.7682 447.711 43.0312 448.414 43.0312C449.112 43.0312 449.693 42.7656 450.156 42.2344C450.62 41.7031 450.852 40.8932 450.852 39.8047C450.852 38.7786 450.617 38.0026 450.148 37.4766C449.685 36.9453 449.107 36.6797 448.414 36.6797C447.711 36.6797 447.128 36.9427 446.664 37.4688C446.201 37.9948 445.969 38.7891 445.969 39.8516ZM453.953 47.1797V35.7031H455.234V36.7812C455.536 36.3594 455.878 36.0443 456.258 35.8359C456.638 35.6224 457.099 35.5156 457.641 35.5156C458.349 35.5156 458.974 35.6979 459.516 36.0625C460.057 36.4271 460.466 36.9427 460.742 37.6094C461.018 38.2708 461.156 38.9974 461.156 39.7891C461.156 40.638 461.003 41.4036 460.695 42.0859C460.393 42.763 459.951 43.2839 459.367 43.6484C458.789 44.0078 458.18 44.1875 457.539 44.1875C457.07 44.1875 456.648 44.0885 456.273 43.8906C455.904 43.6927 455.599 43.4427 455.359 43.1406V47.1797H453.953ZM455.227 39.8984C455.227 40.9661 455.443 41.7552 455.875 42.2656C456.307 42.776 456.831 43.0312 457.445 43.0312C458.07 43.0312 458.604 42.7682 459.047 42.2422C459.495 41.7109 459.719 40.8906 459.719 39.7812C459.719 38.724 459.5 37.9323 459.062 37.4062C458.63 36.8802 458.112 36.6172 457.508 36.6172C456.909 36.6172 456.378 36.8984 455.914 37.4609C455.456 38.0182 455.227 38.8307 455.227 39.8984ZM465.93 42.7422L466.133 43.9844C465.737 44.0677 465.383 44.1094 465.07 44.1094C464.56 44.1094 464.164 44.0286 463.883 43.8672C463.602 43.7057 463.404 43.4948 463.289 43.2344C463.174 42.9688 463.117 42.4141 463.117 41.5703V36.7969H462.086V35.7031H463.117V33.6484L464.516 32.8047V35.7031H465.93V36.7969H464.516V41.6484C464.516 42.0495 464.539 42.3073 464.586 42.4219C464.638 42.5365 464.719 42.6276 464.828 42.6953C464.943 42.763 465.104 42.7969 465.312 42.7969C465.469 42.7969 465.674 42.7786 465.93 42.7422ZM467.32 34.1641V32.5469H468.727V34.1641H467.32ZM467.32 44V35.7031H468.727V44H467.32ZM470.352 39.8516C470.352 38.3151 470.779 37.1771 471.633 36.4375C472.346 35.8229 473.216 35.5156 474.242 35.5156C475.383 35.5156 476.315 35.8906 477.039 36.6406C477.763 37.3854 478.125 38.4167 478.125 39.7344C478.125 40.8021 477.964 41.6432 477.641 42.2578C477.323 42.8672 476.857 43.3411 476.242 43.6797C475.633 44.0182 474.966 44.1875 474.242 44.1875C473.081 44.1875 472.141 43.8151 471.422 43.0703C470.708 42.3255 470.352 41.2526 470.352 39.8516ZM471.797 39.8516C471.797 40.9141 472.029 41.7109 472.492 42.2422C472.956 42.7682 473.539 43.0312 474.242 43.0312C474.94 43.0312 475.521 42.7656 475.984 42.2344C476.448 41.7031 476.68 40.8932 476.68 39.8047C476.68 38.7786 476.445 38.0026 475.977 37.4766C475.513 36.9453 474.935 36.6797 474.242 36.6797C473.539 36.6797 472.956 36.9427 472.492 37.4688C472.029 37.9948 471.797 38.7891 471.797 39.8516ZM479.781 44V35.7031H481.047V36.8828C481.656 35.9714 482.536 35.5156 483.688 35.5156C484.188 35.5156 484.646 35.6068 485.062 35.7891C485.484 35.9661 485.799 36.2005 486.008 36.4922C486.216 36.7839 486.362 37.1302 486.445 37.5312C486.497 37.7917 486.523 38.2474 486.523 38.8984V44H485.117V38.9531C485.117 38.3802 485.062 37.9531 484.953 37.6719C484.844 37.3854 484.648 37.1589 484.367 36.9922C484.091 36.8203 483.766 36.7344 483.391 36.7344C482.792 36.7344 482.273 36.9245 481.836 37.3047C481.404 37.6849 481.188 38.4062 481.188 39.4688V44H479.781ZM488.125 41.5234L489.516 41.3047C489.594 41.862 489.81 42.2891 490.164 42.5859C490.523 42.8828 491.023 43.0312 491.664 43.0312C492.31 43.0312 492.789 42.901 493.102 42.6406C493.414 42.375 493.57 42.0651 493.57 41.7109C493.57 41.3932 493.432 41.1432 493.156 40.9609C492.964 40.8359 492.484 40.6771 491.719 40.4844C490.688 40.224 489.971 40 489.57 39.8125C489.174 39.6198 488.872 39.3568 488.664 39.0234C488.461 38.6849 488.359 38.3125 488.359 37.9062C488.359 37.5365 488.443 37.1953 488.609 36.8828C488.781 36.5651 489.013 36.3021 489.305 36.0938C489.523 35.9323 489.82 35.7969 490.195 35.6875C490.576 35.5729 490.982 35.5156 491.414 35.5156C492.065 35.5156 492.635 35.6094 493.125 35.7969C493.62 35.9844 493.984 36.2396 494.219 36.5625C494.453 36.8802 494.615 37.3073 494.703 37.8438L493.328 38.0312C493.266 37.6042 493.083 37.2708 492.781 37.0312C492.484 36.7917 492.062 36.6719 491.516 36.6719C490.87 36.6719 490.409 36.7786 490.133 36.9922C489.857 37.2057 489.719 37.4557 489.719 37.7422C489.719 37.9245 489.776 38.0885 489.891 38.2344C490.005 38.3854 490.185 38.5104 490.43 38.6094C490.57 38.6615 490.984 38.7812 491.672 38.9688C492.667 39.2344 493.359 39.4531 493.75 39.625C494.146 39.7917 494.456 40.0365 494.68 40.3594C494.904 40.6823 495.016 41.0833 495.016 41.5625C495.016 42.0312 494.878 42.474 494.602 42.8906C494.331 43.3021 493.938 43.6224 493.422 43.8516C492.906 44.0755 492.323 44.1875 491.672 44.1875C490.594 44.1875 489.771 43.9635 489.203 43.5156C488.641 43.0677 488.281 42.4036 488.125 41.5234Z" fill="black"/>
<path d="M848.609 44V32.5469H853.688C854.708 32.5469 855.484 32.651 856.016 32.8594C856.547 33.0625 856.971 33.4245 857.289 33.9453C857.607 34.4661 857.766 35.0417 857.766 35.6719C857.766 36.4844 857.503 37.1693 856.977 37.7266C856.451 38.2839 855.638 38.638 854.539 38.7891C854.94 38.9818 855.245 39.1719 855.453 39.3594C855.896 39.7656 856.315 40.2734 856.711 40.8828L858.703 44H856.797L855.281 41.6172C854.839 40.9297 854.474 40.4036 854.188 40.0391C853.901 39.6745 853.643 39.4193 853.414 39.2734C853.19 39.1276 852.961 39.026 852.727 38.9688C852.555 38.9323 852.273 38.9141 851.883 38.9141H850.125V44H848.609ZM850.125 37.6016H853.383C854.076 37.6016 854.617 37.5312 855.008 37.3906C855.398 37.2448 855.695 37.0156 855.898 36.7031C856.102 36.3854 856.203 36.0417 856.203 35.6719C856.203 35.1302 856.005 34.6849 855.609 34.3359C855.219 33.987 854.599 33.8125 853.75 33.8125H850.125V37.6016ZM865.648 41.3281L867.102 41.5078C866.872 42.3568 866.448 43.0156 865.828 43.4844C865.208 43.9531 864.417 44.1875 863.453 44.1875C862.24 44.1875 861.276 43.8151 860.562 43.0703C859.854 42.3203 859.5 41.2708 859.5 39.9219C859.5 38.526 859.859 37.4427 860.578 36.6719C861.297 35.901 862.229 35.5156 863.375 35.5156C864.484 35.5156 865.391 35.8932 866.094 36.6484C866.797 37.4036 867.148 38.4661 867.148 39.8359C867.148 39.9193 867.146 40.0443 867.141 40.2109H860.953C861.005 41.1224 861.263 41.8203 861.727 42.3047C862.19 42.7891 862.768 43.0312 863.461 43.0312C863.977 43.0312 864.417 42.8958 864.781 42.625C865.146 42.3542 865.435 41.9219 865.648 41.3281ZM861.031 39.0547H865.664C865.602 38.3568 865.424 37.8333 865.133 37.4844C864.685 36.9427 864.104 36.6719 863.391 36.6719C862.745 36.6719 862.201 36.888 861.758 37.3203C861.32 37.7526 861.078 38.3307 861.031 39.0547ZM874.289 40.9609L875.672 41.1406C875.521 42.0938 875.133 42.8411 874.508 43.3828C873.888 43.9193 873.125 44.1875 872.219 44.1875C871.083 44.1875 870.169 43.8177 869.477 43.0781C868.789 42.3333 868.445 41.2682 868.445 39.8828C868.445 38.987 868.594 38.2031 868.891 37.5312C869.188 36.8594 869.638 36.3568 870.242 36.0234C870.852 35.6849 871.513 35.5156 872.227 35.5156C873.128 35.5156 873.865 35.7448 874.438 36.2031C875.01 36.6562 875.378 37.3021 875.539 38.1406L874.172 38.3516C874.042 37.7943 873.81 37.375 873.477 37.0938C873.148 36.8125 872.75 36.6719 872.281 36.6719C871.573 36.6719 870.997 36.9271 870.555 37.4375C870.112 37.9427 869.891 38.7448 869.891 39.8438C869.891 40.9583 870.104 41.7682 870.531 42.2734C870.958 42.7786 871.516 43.0312 872.203 43.0312C872.755 43.0312 873.216 42.862 873.586 42.5234C873.956 42.1849 874.19 41.6641 874.289 40.9609ZM882.555 41.3281L884.008 41.5078C883.779 42.3568 883.354 43.0156 882.734 43.4844C882.115 43.9531 881.323 44.1875 880.359 44.1875C879.146 44.1875 878.182 43.8151 877.469 43.0703C876.76 42.3203 876.406 41.2708 876.406 39.9219C876.406 38.526 876.766 37.4427 877.484 36.6719C878.203 35.901 879.135 35.5156 880.281 35.5156C881.391 35.5156 882.297 35.8932 883 36.6484C883.703 37.4036 884.055 38.4661 884.055 39.8359C884.055 39.9193 884.052 40.0443 884.047 40.2109H877.859C877.911 41.1224 878.169 41.8203 878.633 42.3047C879.096 42.7891 879.674 43.0312 880.367 43.0312C880.883 43.0312 881.323 42.8958 881.688 42.625C882.052 42.3542 882.341 41.9219 882.555 41.3281ZM877.938 39.0547H882.57C882.508 38.3568 882.331 37.8333 882.039 37.4844C881.591 36.9427 881.01 36.6719 880.297 36.6719C879.651 36.6719 879.107 36.888 878.664 37.3203C878.227 37.7526 877.984 38.3307 877.938 39.0547ZM885.789 34.1641V32.5469H887.195V34.1641H885.789ZM885.789 44V35.7031H887.195V44H885.789ZM889.344 47.1797V35.7031H890.625V36.7812C890.927 36.3594 891.268 36.0443 891.648 35.8359C892.029 35.6224 892.49 35.5156 893.031 35.5156C893.74 35.5156 894.365 35.6979 894.906 36.0625C895.448 36.4271 895.857 36.9427 896.133 37.6094C896.409 38.2708 896.547 38.9974 896.547 39.7891C896.547 40.638 896.393 41.4036 896.086 42.0859C895.784 42.763 895.341 43.2839 894.758 43.6484C894.18 44.0078 893.57 44.1875 892.93 44.1875C892.461 44.1875 892.039 44.0885 891.664 43.8906C891.294 43.6927 890.99 43.4427 890.75 43.1406V47.1797H889.344ZM890.617 39.8984C890.617 40.9661 890.833 41.7552 891.266 42.2656C891.698 42.776 892.221 43.0312 892.836 43.0312C893.461 43.0312 893.995 42.7682 894.438 42.2422C894.885 41.7109 895.109 40.8906 895.109 39.7812C895.109 38.724 894.891 37.9323 894.453 37.4062C894.021 36.8802 893.503 36.6172 892.898 36.6172C892.299 36.6172 891.768 36.8984 891.305 37.4609C890.846 38.0182 890.617 38.8307 890.617 39.8984ZM901.32 42.7422L901.523 43.9844C901.128 44.0677 900.773 44.1094 900.461 44.1094C899.951 44.1094 899.555 44.0286 899.273 43.8672C898.992 43.7057 898.794 43.4948 898.68 43.2344C898.565 42.9688 898.508 42.4141 898.508 41.5703V36.7969H897.477V35.7031H898.508V33.6484L899.906 32.8047V35.7031H901.32V36.7969H899.906V41.6484C899.906 42.0495 899.93 42.3073 899.977 42.4219C900.029 42.5365 900.109 42.6276 900.219 42.6953C900.333 42.763 900.495 42.7969 900.703 42.7969C900.859 42.7969 901.065 42.7786 901.32 42.7422Z" fill="black"/>
</svg>
