<svg width="905" height="48" viewBox="0 0 905 48" fill="none" xmlns="http://www.w3.org/2000/svg">
<line x1="18" y1="7.5" x2="877" y2="7.5" stroke="#E8E8E8"/>
<circle cx="18.5" cy="7.5" r="7.5" fill="#61CB46"/>
<circle cx="439.5" cy="7.5" r="7.5" fill="#61CB46"/>
<circle cx="877.5" cy="7.5" r="7.5" fill="#E8E8E8"/>
<path d="M9.78125 39.9844L11.2969 40.3672C10.9792 41.612 10.4062 42.5625 9.57812 43.2188C8.75521 43.8698 7.7474 44.1953 6.55469 44.1953C5.32031 44.1953 4.3151 43.9453 3.53906 43.4453C2.76823 42.9401 2.17969 42.2109 1.77344 41.2578C1.3724 40.3047 1.17188 39.2812 1.17188 38.1875C1.17188 36.9948 1.39844 35.9557 1.85156 35.0703C2.3099 34.1797 2.95833 33.5052 3.79688 33.0469C4.64062 32.5833 5.56771 32.3516 6.57812 32.3516C7.72396 32.3516 8.6875 32.6432 9.46875 33.2266C10.25 33.8099 10.7943 34.6302 11.1016 35.6875L9.60938 36.0391C9.34375 35.2057 8.95833 34.599 8.45312 34.2188C7.94792 33.8385 7.3125 33.6484 6.54688 33.6484C5.66667 33.6484 4.92969 33.8594 4.33594 34.2812C3.7474 34.7031 3.33333 35.2708 3.09375 35.9844C2.85417 36.6927 2.73438 37.4245 2.73438 38.1797C2.73438 39.1536 2.875 40.0052 3.15625 40.7344C3.44271 41.4583 3.88542 42 4.48438 42.3594C5.08333 42.7188 5.73177 42.8984 6.42969 42.8984C7.27865 42.8984 7.9974 42.6536 8.58594 42.1641C9.17448 41.6745 9.57292 40.9479 9.78125 39.9844ZM18.4062 42.9766C17.8854 43.4193 17.3828 43.7318 16.8984 43.9141C16.4193 44.0964 15.9036 44.1875 15.3516 44.1875C14.4401 44.1875 13.7396 43.9661 13.25 43.5234C12.7604 43.0755 12.5156 42.5052 12.5156 41.8125C12.5156 41.4062 12.6068 41.0365 12.7891 40.7031C12.9766 40.3646 13.2188 40.0938 13.5156 39.8906C13.8177 39.6875 14.1562 39.5339 14.5312 39.4297C14.8073 39.3568 15.224 39.2865 15.7812 39.2188C16.9167 39.0833 17.7526 38.9219 18.2891 38.7344C18.2943 38.5417 18.2969 38.4193 18.2969 38.3672C18.2969 37.7943 18.1641 37.3906 17.8984 37.1562C17.5391 36.8385 17.0052 36.6797 16.2969 36.6797C15.6354 36.6797 15.1458 36.7969 14.8281 37.0312C14.5156 37.2604 14.2839 37.6693 14.1328 38.2578L12.7578 38.0703C12.8828 37.4818 13.0885 37.0078 13.375 36.6484C13.6615 36.2839 14.0755 36.0052 14.6172 35.8125C15.1589 35.6146 15.7865 35.5156 16.5 35.5156C17.2083 35.5156 17.7839 35.599 18.2266 35.7656C18.6693 35.9323 18.9948 36.1432 19.2031 36.3984C19.4115 36.6484 19.5573 36.9661 19.6406 37.3516C19.6875 37.5911 19.7109 38.0234 19.7109 38.6484V40.5234C19.7109 41.8307 19.7396 42.6589 19.7969 43.0078C19.8594 43.3516 19.9792 43.6823 20.1562 44H18.6875C18.5417 43.7083 18.4479 43.3672 18.4062 42.9766ZM18.2891 39.8359C17.7786 40.0443 17.013 40.2214 15.9922 40.3672C15.4141 40.4505 15.0052 40.5443 14.7656 40.6484C14.526 40.7526 14.3411 40.9062 14.2109 41.1094C14.0807 41.3073 14.0156 41.5286 14.0156 41.7734C14.0156 42.1484 14.1562 42.4609 14.4375 42.7109C14.724 42.9609 15.1406 43.0859 15.6875 43.0859C16.2292 43.0859 16.7109 42.9688 17.1328 42.7344C17.5547 42.4948 17.8646 42.1693 18.0625 41.7578C18.2135 41.4401 18.2891 40.9714 18.2891 40.3516V39.8359ZM21.8828 44V35.7031H23.1484V36.9609C23.4714 36.3724 23.7682 35.9844 24.0391 35.7969C24.3151 35.6094 24.6172 35.5156 24.9453 35.5156C25.4193 35.5156 25.901 35.6667 26.3906 35.9688L25.9062 37.2734C25.5625 37.0703 25.2188 36.9688 24.875 36.9688C24.5677 36.9688 24.2917 37.0625 24.0469 37.25C23.8021 37.4323 23.6276 37.6875 23.5234 38.0156C23.3672 38.5156 23.2891 39.0625 23.2891 39.6562V44H21.8828ZM30.2969 42.7422L30.5 43.9844C30.1042 44.0677 29.75 44.1094 29.4375 44.1094C28.9271 44.1094 28.5312 44.0286 28.25 43.8672C27.9688 43.7057 27.7708 43.4948 27.6562 43.2344C27.5417 42.9688 27.4844 42.4141 27.4844 41.5703V36.7969H26.4531V35.7031H27.4844V33.6484L28.8828 32.8047V35.7031H30.2969V36.7969H28.8828V41.6484C28.8828 42.0495 28.9062 42.3073 28.9531 42.4219C29.0052 42.5365 29.0859 42.6276 29.1953 42.6953C29.3099 42.763 29.4714 42.7969 29.6797 42.7969C29.8359 42.7969 30.0417 42.7786 30.2969 42.7422Z" fill="black"/>
<path d="M380.602 44V32.5469H384.922C385.682 32.5469 386.263 32.5833 386.664 32.6562C387.227 32.75 387.698 32.9297 388.078 33.1953C388.458 33.4557 388.763 33.8229 388.992 34.2969C389.227 34.7708 389.344 35.2917 389.344 35.8594C389.344 36.8333 389.034 37.6589 388.414 38.3359C387.794 39.0078 386.674 39.3438 385.055 39.3438H382.117V44H380.602ZM382.117 37.9922H385.078C386.057 37.9922 386.753 37.8099 387.164 37.4453C387.576 37.0807 387.781 36.5677 387.781 35.9062C387.781 35.4271 387.659 35.0182 387.414 34.6797C387.174 34.3359 386.857 34.1094 386.461 34C386.206 33.9323 385.734 33.8984 385.047 33.8984H382.117V37.9922ZM396.508 42.9766C395.987 43.4193 395.484 43.7318 395 43.9141C394.521 44.0964 394.005 44.1875 393.453 44.1875C392.542 44.1875 391.841 43.9661 391.352 43.5234C390.862 43.0755 390.617 42.5052 390.617 41.8125C390.617 41.4062 390.708 41.0365 390.891 40.7031C391.078 40.3646 391.32 40.0938 391.617 39.8906C391.919 39.6875 392.258 39.5339 392.633 39.4297C392.909 39.3568 393.326 39.2865 393.883 39.2188C395.018 39.0833 395.854 38.9219 396.391 38.7344C396.396 38.5417 396.398 38.4193 396.398 38.3672C396.398 37.7943 396.266 37.3906 396 37.1562C395.641 36.8385 395.107 36.6797 394.398 36.6797C393.737 36.6797 393.247 36.7969 392.93 37.0312C392.617 37.2604 392.385 37.6693 392.234 38.2578L390.859 38.0703C390.984 37.4818 391.19 37.0078 391.477 36.6484C391.763 36.2839 392.177 36.0052 392.719 35.8125C393.26 35.6146 393.888 35.5156 394.602 35.5156C395.31 35.5156 395.885 35.599 396.328 35.7656C396.771 35.9323 397.096 36.1432 397.305 36.3984C397.513 36.6484 397.659 36.9661 397.742 37.3516C397.789 37.5911 397.812 38.0234 397.812 38.6484V40.5234C397.812 41.8307 397.841 42.6589 397.898 43.0078C397.961 43.3516 398.081 43.6823 398.258 44H396.789C396.643 43.7083 396.549 43.3672 396.508 42.9766ZM396.391 39.8359C395.88 40.0443 395.115 40.2214 394.094 40.3672C393.516 40.4505 393.107 40.5443 392.867 40.6484C392.628 40.7526 392.443 40.9062 392.312 41.1094C392.182 41.3073 392.117 41.5286 392.117 41.7734C392.117 42.1484 392.258 42.4609 392.539 42.7109C392.826 42.9609 393.242 43.0859 393.789 43.0859C394.331 43.0859 394.812 42.9688 395.234 42.7344C395.656 42.4948 395.966 42.1693 396.164 41.7578C396.315 41.4401 396.391 40.9714 396.391 40.3516V39.8359ZM399.938 47.1953L399.781 45.875C400.089 45.9583 400.357 46 400.586 46C400.898 46 401.148 45.9479 401.336 45.8438C401.523 45.7396 401.677 45.5938 401.797 45.4062C401.885 45.2656 402.029 44.9167 402.227 44.3594C402.253 44.2812 402.294 44.1667 402.352 44.0156L399.203 35.7031H400.719L402.445 40.5078C402.669 41.1172 402.87 41.7578 403.047 42.4297C403.208 41.7839 403.401 41.1536 403.625 40.5391L405.398 35.7031H406.805L403.648 44.1406C403.31 45.0521 403.047 45.6797 402.859 46.0234C402.609 46.487 402.323 46.8255 402 47.0391C401.677 47.2578 401.292 47.3672 400.844 47.3672C400.573 47.3672 400.271 47.3099 399.938 47.1953ZM408 44V35.7031H409.258V36.8672C409.518 36.4609 409.865 36.1354 410.297 35.8906C410.729 35.6406 411.221 35.5156 411.773 35.5156C412.388 35.5156 412.891 35.6432 413.281 35.8984C413.677 36.1536 413.956 36.5104 414.117 36.9688C414.773 36 415.628 35.5156 416.68 35.5156C417.503 35.5156 418.135 35.7448 418.578 36.2031C419.021 36.6562 419.242 37.3568 419.242 38.3047V44H417.844V38.7734C417.844 38.2109 417.797 37.8073 417.703 37.5625C417.615 37.3125 417.451 37.112 417.211 36.9609C416.971 36.8099 416.69 36.7344 416.367 36.7344C415.784 36.7344 415.299 36.9297 414.914 37.3203C414.529 37.7057 414.336 38.3255 414.336 39.1797V44H412.93V38.6094C412.93 37.9844 412.815 37.5156 412.586 37.2031C412.357 36.8906 411.982 36.7344 411.461 36.7344C411.065 36.7344 410.698 36.8385 410.359 37.0469C410.026 37.2552 409.784 37.5599 409.633 37.9609C409.482 38.362 409.406 38.9401 409.406 39.6953V44H408ZM427.008 41.3281L428.461 41.5078C428.232 42.3568 427.807 43.0156 427.188 43.4844C426.568 43.9531 425.776 44.1875 424.812 44.1875C423.599 44.1875 422.635 43.8151 421.922 43.0703C421.214 42.3203 420.859 41.2708 420.859 39.9219C420.859 38.526 421.219 37.4427 421.938 36.6719C422.656 35.901 423.589 35.5156 424.734 35.5156C425.844 35.5156 426.75 35.8932 427.453 36.6484C428.156 37.4036 428.508 38.4661 428.508 39.8359C428.508 39.9193 428.505 40.0443 428.5 40.2109H422.312C422.365 41.1224 422.622 41.8203 423.086 42.3047C423.549 42.7891 424.128 43.0312 424.82 43.0312C425.336 43.0312 425.776 42.8958 426.141 42.625C426.505 42.3542 426.794 41.9219 427.008 41.3281ZM422.391 39.0547H427.023C426.961 38.3568 426.784 37.8333 426.492 37.4844C426.044 36.9427 425.464 36.6719 424.75 36.6719C424.104 36.6719 423.56 36.888 423.117 37.3203C422.68 37.7526 422.438 38.3307 422.391 39.0547ZM430.234 44V35.7031H431.5V36.8828C432.109 35.9714 432.99 35.5156 434.141 35.5156C434.641 35.5156 435.099 35.6068 435.516 35.7891C435.938 35.9661 436.253 36.2005 436.461 36.4922C436.669 36.7839 436.815 37.1302 436.898 37.5312C436.951 37.7917 436.977 38.2474 436.977 38.8984V44H435.57V38.9531C435.57 38.3802 435.516 37.9531 435.406 37.6719C435.297 37.3854 435.102 37.1589 434.82 36.9922C434.544 36.8203 434.219 36.7344 433.844 36.7344C433.245 36.7344 432.727 36.9245 432.289 37.3047C431.857 37.6849 431.641 38.4062 431.641 39.4688V44H430.234ZM442.211 42.7422L442.414 43.9844C442.018 44.0677 441.664 44.1094 441.352 44.1094C440.841 44.1094 440.445 44.0286 440.164 43.8672C439.883 43.7057 439.685 43.4948 439.57 43.2344C439.456 42.9688 439.398 42.4141 439.398 41.5703V36.7969H438.367V35.7031H439.398V33.6484L440.797 32.8047V35.7031H442.211V36.7969H440.797V41.6484C440.797 42.0495 440.82 42.3073 440.867 42.4219C440.919 42.5365 441 42.6276 441.109 42.6953C441.224 42.763 441.385 42.7969 441.594 42.7969C441.75 42.7969 441.956 42.7786 442.211 42.7422ZM447.523 39.8516C447.523 38.3151 447.951 37.1771 448.805 36.4375C449.518 35.8229 450.388 35.5156 451.414 35.5156C452.555 35.5156 453.487 35.8906 454.211 36.6406C454.935 37.3854 455.297 38.4167 455.297 39.7344C455.297 40.8021 455.135 41.6432 454.812 42.2578C454.495 42.8672 454.029 43.3411 453.414 43.6797C452.805 44.0182 452.138 44.1875 451.414 44.1875C450.253 44.1875 449.312 43.8151 448.594 43.0703C447.88 42.3255 447.523 41.2526 447.523 39.8516ZM448.969 39.8516C448.969 40.9141 449.201 41.7109 449.664 42.2422C450.128 42.7682 450.711 43.0312 451.414 43.0312C452.112 43.0312 452.693 42.7656 453.156 42.2344C453.62 41.7031 453.852 40.8932 453.852 39.8047C453.852 38.7786 453.617 38.0026 453.148 37.4766C452.685 36.9453 452.107 36.6797 451.414 36.6797C450.711 36.6797 450.128 36.9427 449.664 37.4688C449.201 37.9948 448.969 38.7891 448.969 39.8516ZM456.953 47.1797V35.7031H458.234V36.7812C458.536 36.3594 458.878 36.0443 459.258 35.8359C459.638 35.6224 460.099 35.5156 460.641 35.5156C461.349 35.5156 461.974 35.6979 462.516 36.0625C463.057 36.4271 463.466 36.9427 463.742 37.6094C464.018 38.2708 464.156 38.9974 464.156 39.7891C464.156 40.638 464.003 41.4036 463.695 42.0859C463.393 42.763 462.951 43.2839 462.367 43.6484C461.789 44.0078 461.18 44.1875 460.539 44.1875C460.07 44.1875 459.648 44.0885 459.273 43.8906C458.904 43.6927 458.599 43.4427 458.359 43.1406V47.1797H456.953ZM458.227 39.8984C458.227 40.9661 458.443 41.7552 458.875 42.2656C459.307 42.776 459.831 43.0312 460.445 43.0312C461.07 43.0312 461.604 42.7682 462.047 42.2422C462.495 41.7109 462.719 40.8906 462.719 39.7812C462.719 38.724 462.5 37.9323 462.062 37.4062C461.63 36.8802 461.112 36.6172 460.508 36.6172C459.909 36.6172 459.378 36.8984 458.914 37.4609C458.456 38.0182 458.227 38.8307 458.227 39.8984ZM468.93 42.7422L469.133 43.9844C468.737 44.0677 468.383 44.1094 468.07 44.1094C467.56 44.1094 467.164 44.0286 466.883 43.8672C466.602 43.7057 466.404 43.4948 466.289 43.2344C466.174 42.9688 466.117 42.4141 466.117 41.5703V36.7969H465.086V35.7031H466.117V33.6484L467.516 32.8047V35.7031H468.93V36.7969H467.516V41.6484C467.516 42.0495 467.539 42.3073 467.586 42.4219C467.638 42.5365 467.719 42.6276 467.828 42.6953C467.943 42.763 468.104 42.7969 468.312 42.7969C468.469 42.7969 468.674 42.7786 468.93 42.7422ZM470.32 34.1641V32.5469H471.727V34.1641H470.32ZM470.32 44V35.7031H471.727V44H470.32ZM473.352 39.8516C473.352 38.3151 473.779 37.1771 474.633 36.4375C475.346 35.8229 476.216 35.5156 477.242 35.5156C478.383 35.5156 479.315 35.8906 480.039 36.6406C480.763 37.3854 481.125 38.4167 481.125 39.7344C481.125 40.8021 480.964 41.6432 480.641 42.2578C480.323 42.8672 479.857 43.3411 479.242 43.6797C478.633 44.0182 477.966 44.1875 477.242 44.1875C476.081 44.1875 475.141 43.8151 474.422 43.0703C473.708 42.3255 473.352 41.2526 473.352 39.8516ZM474.797 39.8516C474.797 40.9141 475.029 41.7109 475.492 42.2422C475.956 42.7682 476.539 43.0312 477.242 43.0312C477.94 43.0312 478.521 42.7656 478.984 42.2344C479.448 41.7031 479.68 40.8932 479.68 39.8047C479.68 38.7786 479.445 38.0026 478.977 37.4766C478.513 36.9453 477.935 36.6797 477.242 36.6797C476.539 36.6797 475.956 36.9427 475.492 37.4688C475.029 37.9948 474.797 38.7891 474.797 39.8516ZM482.781 44V35.7031H484.047V36.8828C484.656 35.9714 485.536 35.5156 486.688 35.5156C487.188 35.5156 487.646 35.6068 488.062 35.7891C488.484 35.9661 488.799 36.2005 489.008 36.4922C489.216 36.7839 489.362 37.1302 489.445 37.5312C489.497 37.7917 489.523 38.2474 489.523 38.8984V44H488.117V38.9531C488.117 38.3802 488.062 37.9531 487.953 37.6719C487.844 37.3854 487.648 37.1589 487.367 36.9922C487.091 36.8203 486.766 36.7344 486.391 36.7344C485.792 36.7344 485.273 36.9245 484.836 37.3047C484.404 37.6849 484.188 38.4062 484.188 39.4688V44H482.781ZM491.125 41.5234L492.516 41.3047C492.594 41.862 492.81 42.2891 493.164 42.5859C493.523 42.8828 494.023 43.0312 494.664 43.0312C495.31 43.0312 495.789 42.901 496.102 42.6406C496.414 42.375 496.57 42.0651 496.57 41.7109C496.57 41.3932 496.432 41.1432 496.156 40.9609C495.964 40.8359 495.484 40.6771 494.719 40.4844C493.688 40.224 492.971 40 492.57 39.8125C492.174 39.6198 491.872 39.3568 491.664 39.0234C491.461 38.6849 491.359 38.3125 491.359 37.9062C491.359 37.5365 491.443 37.1953 491.609 36.8828C491.781 36.5651 492.013 36.3021 492.305 36.0938C492.523 35.9323 492.82 35.7969 493.195 35.6875C493.576 35.5729 493.982 35.5156 494.414 35.5156C495.065 35.5156 495.635 35.6094 496.125 35.7969C496.62 35.9844 496.984 36.2396 497.219 36.5625C497.453 36.8802 497.615 37.3073 497.703 37.8438L496.328 38.0312C496.266 37.6042 496.083 37.2708 495.781 37.0312C495.484 36.7917 495.062 36.6719 494.516 36.6719C493.87 36.6719 493.409 36.7786 493.133 36.9922C492.857 37.2057 492.719 37.4557 492.719 37.7422C492.719 37.9245 492.776 38.0885 492.891 38.2344C493.005 38.3854 493.185 38.5104 493.43 38.6094C493.57 38.6615 493.984 38.7812 494.672 38.9688C495.667 39.2344 496.359 39.4531 496.75 39.625C497.146 39.7917 497.456 40.0365 497.68 40.3594C497.904 40.6823 498.016 41.0833 498.016 41.5625C498.016 42.0312 497.878 42.474 497.602 42.8906C497.331 43.3021 496.938 43.6224 496.422 43.8516C495.906 44.0755 495.323 44.1875 494.672 44.1875C493.594 44.1875 492.771 43.9635 492.203 43.5156C491.641 43.0677 491.281 42.4036 491.125 41.5234Z" fill="black"/>
<path d="M851.609 44V32.5469H856.688C857.708 32.5469 858.484 32.651 859.016 32.8594C859.547 33.0625 859.971 33.4245 860.289 33.9453C860.607 34.4661 860.766 35.0417 860.766 35.6719C860.766 36.4844 860.503 37.1693 859.977 37.7266C859.451 38.2839 858.638 38.638 857.539 38.7891C857.94 38.9818 858.245 39.1719 858.453 39.3594C858.896 39.7656 859.315 40.2734 859.711 40.8828L861.703 44H859.797L858.281 41.6172C857.839 40.9297 857.474 40.4036 857.188 40.0391C856.901 39.6745 856.643 39.4193 856.414 39.2734C856.19 39.1276 855.961 39.026 855.727 38.9688C855.555 38.9323 855.273 38.9141 854.883 38.9141H853.125V44H851.609ZM853.125 37.6016H856.383C857.076 37.6016 857.617 37.5312 858.008 37.3906C858.398 37.2448 858.695 37.0156 858.898 36.7031C859.102 36.3854 859.203 36.0417 859.203 35.6719C859.203 35.1302 859.005 34.6849 858.609 34.3359C858.219 33.987 857.599 33.8125 856.75 33.8125H853.125V37.6016ZM868.648 41.3281L870.102 41.5078C869.872 42.3568 869.448 43.0156 868.828 43.4844C868.208 43.9531 867.417 44.1875 866.453 44.1875C865.24 44.1875 864.276 43.8151 863.562 43.0703C862.854 42.3203 862.5 41.2708 862.5 39.9219C862.5 38.526 862.859 37.4427 863.578 36.6719C864.297 35.901 865.229 35.5156 866.375 35.5156C867.484 35.5156 868.391 35.8932 869.094 36.6484C869.797 37.4036 870.148 38.4661 870.148 39.8359C870.148 39.9193 870.146 40.0443 870.141 40.2109H863.953C864.005 41.1224 864.263 41.8203 864.727 42.3047C865.19 42.7891 865.768 43.0312 866.461 43.0312C866.977 43.0312 867.417 42.8958 867.781 42.625C868.146 42.3542 868.435 41.9219 868.648 41.3281ZM864.031 39.0547H868.664C868.602 38.3568 868.424 37.8333 868.133 37.4844C867.685 36.9427 867.104 36.6719 866.391 36.6719C865.745 36.6719 865.201 36.888 864.758 37.3203C864.32 37.7526 864.078 38.3307 864.031 39.0547ZM877.289 40.9609L878.672 41.1406C878.521 42.0938 878.133 42.8411 877.508 43.3828C876.888 43.9193 876.125 44.1875 875.219 44.1875C874.083 44.1875 873.169 43.8177 872.477 43.0781C871.789 42.3333 871.445 41.2682 871.445 39.8828C871.445 38.987 871.594 38.2031 871.891 37.5312C872.188 36.8594 872.638 36.3568 873.242 36.0234C873.852 35.6849 874.513 35.5156 875.227 35.5156C876.128 35.5156 876.865 35.7448 877.438 36.2031C878.01 36.6562 878.378 37.3021 878.539 38.1406L877.172 38.3516C877.042 37.7943 876.81 37.375 876.477 37.0938C876.148 36.8125 875.75 36.6719 875.281 36.6719C874.573 36.6719 873.997 36.9271 873.555 37.4375C873.112 37.9427 872.891 38.7448 872.891 39.8438C872.891 40.9583 873.104 41.7682 873.531 42.2734C873.958 42.7786 874.516 43.0312 875.203 43.0312C875.755 43.0312 876.216 42.862 876.586 42.5234C876.956 42.1849 877.19 41.6641 877.289 40.9609ZM885.555 41.3281L887.008 41.5078C886.779 42.3568 886.354 43.0156 885.734 43.4844C885.115 43.9531 884.323 44.1875 883.359 44.1875C882.146 44.1875 881.182 43.8151 880.469 43.0703C879.76 42.3203 879.406 41.2708 879.406 39.9219C879.406 38.526 879.766 37.4427 880.484 36.6719C881.203 35.901 882.135 35.5156 883.281 35.5156C884.391 35.5156 885.297 35.8932 886 36.6484C886.703 37.4036 887.055 38.4661 887.055 39.8359C887.055 39.9193 887.052 40.0443 887.047 40.2109H880.859C880.911 41.1224 881.169 41.8203 881.633 42.3047C882.096 42.7891 882.674 43.0312 883.367 43.0312C883.883 43.0312 884.323 42.8958 884.688 42.625C885.052 42.3542 885.341 41.9219 885.555 41.3281ZM880.938 39.0547H885.57C885.508 38.3568 885.331 37.8333 885.039 37.4844C884.591 36.9427 884.01 36.6719 883.297 36.6719C882.651 36.6719 882.107 36.888 881.664 37.3203C881.227 37.7526 880.984 38.3307 880.938 39.0547ZM888.789 34.1641V32.5469H890.195V34.1641H888.789ZM888.789 44V35.7031H890.195V44H888.789ZM892.344 47.1797V35.7031H893.625V36.7812C893.927 36.3594 894.268 36.0443 894.648 35.8359C895.029 35.6224 895.49 35.5156 896.031 35.5156C896.74 35.5156 897.365 35.6979 897.906 36.0625C898.448 36.4271 898.857 36.9427 899.133 37.6094C899.409 38.2708 899.547 38.9974 899.547 39.7891C899.547 40.638 899.393 41.4036 899.086 42.0859C898.784 42.763 898.341 43.2839 897.758 43.6484C897.18 44.0078 896.57 44.1875 895.93 44.1875C895.461 44.1875 895.039 44.0885 894.664 43.8906C894.294 43.6927 893.99 43.4427 893.75 43.1406V47.1797H892.344ZM893.617 39.8984C893.617 40.9661 893.833 41.7552 894.266 42.2656C894.698 42.776 895.221 43.0312 895.836 43.0312C896.461 43.0312 896.995 42.7682 897.438 42.2422C897.885 41.7109 898.109 40.8906 898.109 39.7812C898.109 38.724 897.891 37.9323 897.453 37.4062C897.021 36.8802 896.503 36.6172 895.898 36.6172C895.299 36.6172 894.768 36.8984 894.305 37.4609C893.846 38.0182 893.617 38.8307 893.617 39.8984ZM904.32 42.7422L904.523 43.9844C904.128 44.0677 903.773 44.1094 903.461 44.1094C902.951 44.1094 902.555 44.0286 902.273 43.8672C901.992 43.7057 901.794 43.4948 901.68 43.2344C901.565 42.9688 901.508 42.4141 901.508 41.5703V36.7969H900.477V35.7031H901.508V33.6484L902.906 32.8047V35.7031H904.32V36.7969H902.906V41.6484C902.906 42.0495 902.93 42.3073 902.977 42.4219C903.029 42.5365 903.109 42.6276 903.219 42.6953C903.333 42.763 903.495 42.7969 903.703 42.7969C903.859 42.7969 904.065 42.7786 904.32 42.7422Z" fill="#BEBEBE"/>
</svg>
